<svg xmlns="http://www.w3.org/2000/svg" viewBox="0 0 510.24 510.24"><title>favicon</title><path d="M68,0H442.25a68,68,0,0,1,68,68V442.26a68,68,0,0,1-68,68H68a68,68,0,0,1-68-68V68A68,68,0,0,1,68,0Z" style="fill:#00ff7f"/><path d="M376,459.52,254.21,281.28,130.93,459.52c-1.49,1.48-5.94,3-10.4,3a14.88,14.88,0,0,1-14.85-14.85V60a14.86,14.86,0,0,1,29.71,0V239.69h34.16V60A14.86,14.86,0,0,1,184.4,45.11c8.91,0,14.86,5.94,14.86,14.85V239.69h52L380.47,51.05c3-1.48,7.42-4.46,11.88-4.46,3,0,4.46,1.49,7.43,3,4.45,4.45,5.94,5.94,5.94,10.39,1.48,4.46,0,7.43-3,10.4L273.52,256,402.77,441.69c1.48,3,3.88,11.56.4,14.94-2.13,2.07-10.91,7.8-12.29,8.35C387.34,466.34,380.44,465.55,376,459.52ZM138.36,406.05,231.93,269.4H138.36Z" style="fill:#fff"/></svg>