<?xml version="1.0" encoding="utf-8"?>
<!-- Generator: Adobe Illustrator 24.0.0, SVG Export Plug-In . SVG Version: 6.00 Build 0)  -->
<svg version="1.1" id="Layer_1" xmlns="http://www.w3.org/2000/svg" xmlns:xlink="http://www.w3.org/1999/xlink" x="0px" y="0px"
	 viewBox="0 0 203.8 47.6" style="enable-background:new 0 0 203.8 47.6;" xml:space="preserve">
<style type="text/css">
	.st0{fill:#FFFFFF;}
</style>
<g>
	<path class="st0" d="M99.5,45.4H3.1c-0.5,0-0.8-0.4-0.8-0.8s0.4-0.8,0.8-0.8h96.4c0.5,0,0.8,0.4,0.8,0.8S100,45.4,99.5,45.4"/>
	<path class="st0" d="M199.6,45.4l-91.6,0c-0.5,0-0.8-0.4-0.8-0.8s0.4-0.8,0.8-0.8l91.6,0c0.5,0,0.8,0.4,0.8,0.8
		S200.1,45.4,199.6,45.4"/>
	<path class="st0" d="M104.5,45.4h-1.3c-0.5,0-0.8-0.4-0.8-0.8s0.4-0.8,0.8-0.8h1.3c0.5,0,0.8,0.4,0.8,0.8S104.9,45.4,104.5,45.4"/>
	<path class="st0" d="M99.5,4.1H3.1c-0.5,0-0.8-0.4-0.8-0.8s0.4-0.8,0.8-0.8h96.4c0.5,0,0.8,0.4,0.8,0.8S100,4.1,99.5,4.1"/>
	<path class="st0" d="M199.6,4.1L108,4c-0.5,0-0.8-0.4-0.8-0.8s0.4-0.8,0.8-0.8l91.6,0c0.5,0,0.8,0.4,0.8,0.8S200.1,4.1,199.6,4.1"
		/>
	<path class="st0" d="M104.5,4.1h-1.3c-0.5,0-0.8-0.4-0.8-0.8s0.4-0.8,0.8-0.8h1.3c0.5,0,0.8,0.4,0.8,0.8S104.9,4.1,104.5,4.1"/>
</g>
<g transform="translate(-.073522 -97.490435)">
	<path class="st0" d="M21.9,135.2c-0.4,0-0.6-0.2-0.8-0.4l-8.2-12l-8.3,12c-0.1,0.1-0.4,0.2-0.7,0.2c-0.5,0-1-0.4-1-1v-26.1
		c0-0.5,0.4-1,1-1c0.5,0,1,0.4,1,1V120h2.3v-12.1c0-0.5,0.4-1,1-1s1,0.4,1,1V120h3.5l8.7-12.7c0.2-0.1,0.5-0.3,0.8-0.3
		c0.2,0,0.3,0.1,0.5,0.2c0.3,0.3,0.4,0.4,0.4,0.7c0.1,0.3,0,0.5-0.2,0.7l-8.7,12.5l8.7,12.5c0.1,0.2,0.3,0.3,0,0.7
		c0,0.3-0.1,0.5-0.3,0.7c-0.2,0-0.2,0-0.3,0C22.1,135.1,22,135.2,21.9,135.2L21.9,135.2z M5.1,131.2l6.3-9.2H5.1V131.2z"/>
	<path class="st0" d="M25.8,134.9c-0.5,0-0.8-0.2-0.9-0.6l-0.1-0.2v-26c0-0.5,0.4-1,1-1h18c0.5,0,1,0.4,1,1c0,0.5-0.4,1-1,1H28
		l11.3,11.3c0.2,0.2,0.4,0.4,0.4,0.7c0,0.4-0.1,0.6-0.3,0.8L28,133.3h15.8c0.5,0,0.9,0.4,1,0.7c0,0.5-0.4,0.9-1,0.9L25.8,134.9z
		 M26.7,132l2.3-2.3v-17.1l-2.3-2.2V132z M30.8,127.9l5.8-5.9h-5.8V127.9z M30.8,120.2h5.8l-5.8-5.8V120.2z"/>
	<path class="st0" d="M54.4,135.1c-0.5,0-1-0.4-1-1v-12.8l-6.3-12.9c-0.2-0.5,0-1,0.4-1.2c0.2-0.1,0.3-0.1,0.4-0.1
		c0.3,0,0.6,0.2,0.8,0.5l6.5,12.9c0.1,0.2,0.2,0.3,0.1,0.6V134C55.4,134.6,54.9,135.1,54.4,135.1z"/>
	<path class="st0" d="M58.5,135.2c-0.5,0-1-0.4-1-1v-12.8l-6.3-12.8c-0.2-0.5,0-1,0.4-1.2c0.2-0.1,0.3-0.1,0.4-0.1
		c0.3,0,0.6,0.2,0.8,0.5l5.5,11.3l5.6-11.4c0.1-0.4,0.5-0.5,0.8-0.5c0.2,0,0.3,0,0.4,0.1c0.4,0.2,0.6,0.7,0.5,1.4l-6.3,12.8v12.9
		C59.5,134.7,59,135.2,58.5,135.2L58.5,135.2z"/>
	<path class="st0" d="M80,135c-1.5,0-2.7-0.2-3.8-0.7h-0.1H76c-0.2,0.1-0.4,0.2-0.6,0.2c-3.8,0-5.8-1.8-6.5-2.6
		c-1.3-1.3-2.1-3.1-2.1-4.7v-12.4c0-1.6,0.8-3.4,2.1-4.7c0.9-1,2.8-2.6,6.5-2.6l0.2,0.1c0.2,0,0.3,0.1,0.4,0.2l0.1,0.1h0.1
		c1.1-0.5,2.4-0.7,3.8-0.7c3.7,0,5.8,1.5,7,2.8c1.4,1.4,2.2,3.2,2.2,5c0,0.2,0,0.3-0.1,0.4l-4,5.8l3.8,5.6c0.3,0.2,0.4,0.5,0.4,0.6
		c0,1.7-0.8,3.6-2.2,5c-1.9,1.8-4.2,2.7-7,2.7L80,135L80,135z M77.2,132.8l0.2,0.1c0.8,0.3,1.7,0.4,2.7,0.4c2.4,0,4.3-0.7,5.7-2.1
		c0.5-0.4,1-1.1,1.3-1.9c0-0.2,0.1-0.4,0.1-0.5c0.1-0.3,0.2-0.7,0.2-1l-3.3-4.8L77.2,132.8z M72.8,109.9c-1.2,0.4-2,1.1-2.5,1.5
		c-1,1.1-1.5,2.4-1.5,3.5v12.4c0,1.1,0.6,2.4,1.5,3.5c0.5,0.5,1.2,1.1,2.5,1.5l0.1-0.2c-1.2-1.3-2-3.1-2-4.8v-12.4
		c0-1.6,0.7-3.4,2-4.8l0.4-0.4L72.8,109.9z M75.4,110.3c-0.1,0.1-0.3,0.2-0.4,0.3c-0.2,0.2-0.4,0.3-0.5,0.5c-0.6,0.6-1,1.2-1.3,1.9
		c-0.3,0.6-0.4,1.2-0.4,1.9v12.4c0,0.6,0.2,1.2,0.5,1.9c0.2,0.7,0.6,1.3,1.2,1.9c0.2,0.2,0.5,0.6,0.9,0.8l0.1,0.1l7.4-10.9
		l-7.5-10.9V110.3z M80.1,109c-1.2,0-2,0.1-2.7,0.4l-0.2,0.1l6.8,10l3.4-4.8v-0.1c-0.1-0.5-0.2-1-0.4-1.5c-0.2-0.5-0.6-1.2-1.2-1.9
		C85.2,110.5,83.5,109,80.1,109z"/>
	<path class="st0" d="M116.7,135.1c-0.2,0-0.4,0-0.5-0.1l-12.7-6.7L91.4,135c-0.3,0.1-0.4,0.1-0.5,0.1h-0.2l-0.1-0.1
		c0,0-0.1,0-0.1-0.1c-0.1-0.1-0.3-0.2-0.3-0.3l-0.1-0.2c-0.1-0.2-0.1-0.5,0-0.7l7.7-19.2c0.2-0.2,0.5-0.5,0.9-0.5
		c0.1,0,0.2,0,0.3,0.1c0.3,0.1,0.5,0.3,0.6,0.5s0.1,0.4,0,0.7l-2.9,7.2l2.2,1.1l6.5-16c0-0.1,0-0.1,0.1-0.2c0.3-0.2,0.4-0.3,0.7-0.3
		c0,0,0.6,0,0.9,0.7l10.5,26c0,0.1,0.1,0.2,0.1,0.3s0.1,0.3,0.2,0.5c-0.1,0.2-0.3,0.3-0.4,0.4c-0.1,0-0.1,0.1-0.1,0.1l-0.1,0.1h-0.6
		L116.7,135.1z M105.2,127.1l9.5,5l-3.4-8.4L105.2,127.1z M92.5,132l8.8-4.8l-5.6-3L92.5,132z M100.2,124.5l3.1,1.7l7.3-4.1
		l-4.7-11.5L100.2,124.5z"/>
	<path class="st0" d="M120,135.1c-0.3,0-0.5-0.1-0.7-0.3c-0.3-0.2-0.3-0.5-0.3-0.8v-25.7c0-0.2,0-0.5,0.2-0.7v-0.1
		c0.2-0.1,0.4-0.2,0.7-0.2h0.3l12.9,12.9h0.1c0.9-0.4,1.6-1,2-1.4c0.5-0.5,0.9-1.1,1.2-1.9c0.2-0.5,0.4-1,0.4-1.6v-0.2
		c0-0.6-0.2-1.2-0.4-1.8c-0.4-0.8-0.8-1.5-1.2-2c-1.3-1.4-3.2-2.1-5.6-2.1h-5.8c-0.5,0-1-0.4-1-1c0-0.5,0.4-1,1-1h5.8
		c2.8,0,5.3,1,7,2.8c1.2,1.3,2,3.1,2.1,4.7v0.1c0.1,0.1,0.1,0.2,0.3,0.3c0,1.7-0.9,3.6-2.2,4.9c-1.8,1.8-4.2,2.8-7,2.8H125v7.6
		c0,0.1,0,0.2-0.1,0.3c-0.1,0.2-0.2,0.4-0.3,0.4l-3.7,3.5C120.6,134.8,120.4,135.1,120,135.1L120,135.1z M120.8,132l2.2-2.1v-17.3
		l-2.2-2.2V132z M124.9,120.9h4.9h0.5c0.2,0,0.4-0.1,0.6-0.1h0.3l-6.4-6.4L124.9,120.9L124.9,120.9z"/>
	<path class="st0" d="M149.4,135.1c-3.7,0-5.8-1.5-7-2.8c-1.4-1.4-2.2-3.2-2.2-5c0-0.5,0.4-1,1-1c0.6,0,1,0.4,1,1s0.1,1.2,0.4,1.9
		s0.7,1.3,1.2,1.8c0.9,1,2.6,2.1,5.6,2.1c1.5,0,2.8-0.3,3.9-0.8c0.7-0.3,1.2-0.6,1.6-1l0.1-0.1l-14.3-10.8l-0.1-0.1
		c-0.2-0.2-0.3-0.4-0.3-0.6c0-1.2,0.4-2.4,1-3.4l0.1-0.1l-0.7-0.6l-0.1-0.1l-0.1-0.2v-0.1c0-0.1-0.1-0.2-0.1-0.3
		c0-1.7,0.8-3.6,2.2-5c1.9-1.8,4.2-2.7,7-2.7c2.9,0,5.2,0.9,7,2.7c1.4,1.4,2.2,3.2,2.2,5c0,0.5-0.4,1-1,1c-0.6,0-1-0.4-1-1
		s-0.2-1.2-0.4-1.8c-0.3-0.7-0.7-1.3-1.2-1.9c-0.9-1-2.6-2.2-5.7-2.2c-2.2,0-3.9,0.6-5.3,1.8l-0.1,0.1l14.1,10.7l0.5,0.5h-0.2v0.4
		c0,1.2-0.4,2.4-1,3.4l-0.1,0.1l0.9,0.7l0.1,0.2c0.1,0.2,0.1,0.3,0.1,0.4c0,1.4-0.6,3-1.6,4.3c-0.9,1.1-1.9,1.9-2.9,2.4
		C152.8,134.7,151.3,135.1,149.4,135.1z M142.7,117.4c-0.2,0.6-0.4,1.2-0.5,1.7v0.1l13.9,10.5l0.1-0.1c0.3-0.5,0.5-1.1,0.6-1.7v-0.1
		l-14-10.6L142.7,117.4z M143.3,115.3l12.8,9.9l0.1-0.2c0.3-0.6,0.5-1.2,0.6-1.8v-0.1L143,112.5l-0.1,0.2c-0.1,0.1-0.1,0.2-0.1,0.3
		s0,0.1-0.1,0.2c-0.2,0.5-0.3,0.9-0.4,1.3v0.1l0.1,0.1l0.7,0.5h0.2L143.3,115.3z"/>
	<path class="st0" d="M169.2,135.1c-3.6,0-5.7-1.5-6.9-2.8c-1.4-1.4-2.2-3.2-2.2-5c0-0.5,0.4-1,1-1c0.6,0,1,0.4,1,1s0.1,1.2,0.4,1.9
		s0.7,1.3,1.2,1.8c0.9,1,2.6,2.1,5.6,2.1c1.5,0,2.8-0.3,3.9-0.8c0.7-0.3,1.2-0.6,1.6-1l0.1-0.1l-14.3-10.8l-0.1-0.1
		c-0.2-0.2-0.3-0.4-0.3-0.6c0-1.2,0.4-2.4,1-3.4l0.1-0.1l-0.7-0.6l-0.1-0.1l-0.1-0.2v-0.1c0-0.1-0.1-0.2-0.1-0.3
		c0-1.7,0.8-3.6,2.2-5c1.9-1.8,4.2-2.7,7-2.7c2.9,0,5.2,0.9,7,2.7c1.4,1.4,2.2,3.2,2.2,5c0,0.5-0.4,1-1,1s-1-0.4-1-1
		s-0.2-1.2-0.4-1.8c-0.3-0.7-0.7-1.3-1.2-2c-0.9-1-2.6-2.2-5.7-2.2c-2.2,0-3.9,0.6-5.3,1.8l-0.1,0.1l14.1,10.7l0.5,0.5h-0.3v0.4
		c0,1.2-0.4,2.4-1,3.4l-0.1,0.1l0.9,0.6v0.1c0.1,0.3,0.1,0.4,0.1,0.5c0,1.4-0.6,3-1.6,4.3c-0.9,1.1-1.9,1.9-2.9,2.4
		C172.6,134.7,171.1,135.1,169.2,135.1L169.2,135.1z M162.7,117.4c-0.2,0.6-0.4,1.2-0.5,1.7v0.1l13.9,10.5l0.1-0.1
		c0.3-0.5,0.5-1.1,0.6-1.7v-0.1l-14-10.6L162.7,117.4z M163.3,115.3l12.8,9.9l0.1-0.2c0.3-0.6,0.5-1.2,0.6-1.8v-0.1L163,112.5
		l-0.1,0.2c-0.1,0.1-0.1,0.2-0.1,0.3s0,0.1-0.1,0.2c-0.2,0.5-0.3,0.9-0.4,1.3v0.1l0.1,0.1l0.7,0.5h0.2V115.3z"/>
	<path class="st0" d="M189.1,135.2c-3.6,0-5.7-1.5-6.9-2.8c-1.4-1.4-2.2-3.2-2.2-5c0-0.5,0.4-1,1-1s1,0.4,1,1c0,0.6,0.1,1.2,0.4,1.9
		s0.7,1.3,1.2,1.8c0.9,1,2.6,2.1,5.6,2.1c1.5,0,2.8-0.3,3.9-0.8c0.7-0.3,1.2-0.6,1.6-1l0.1-0.1l-14.3-10.9c-0.2-0.3-0.2-0.4-0.2-0.7
		c0-1.2,0.4-2.4,1-3.4l0.1-0.1l-0.7-0.6l-0.1-0.1l-0.1-0.2v-0.1c0-0.1-0.1-0.2-0.1-0.3c0-1.7,0.8-3.6,2.2-5c1.9-1.8,4.2-2.7,7-2.7
		c2.9,0,5.2,0.9,7,2.7c1.4,1.4,2.2,3.2,2.2,5c0,0.5-0.4,1-1,1s-1-0.4-1-1s-0.2-1.2-0.4-1.8c-0.3-0.7-0.7-1.3-1.2-2
		c-0.9-1-2.6-2.2-5.7-2.2c-2.2,0-3.9,0.6-5.3,1.8l-0.1,0.1l14.1,10.7l0.5,0.5h-0.4v0.5c0,1.2-0.4,2.4-1,3.4l-0.1,0.1l0.9,0.6v0.1
		c0.1,0.3,0.1,0.4,0.1,0.5c0,1.4-0.6,3-1.6,4.3c-0.9,1.1-1.9,1.9-2.9,2.4C192.5,134.8,191,135.2,189.1,135.2L189.1,135.2z
		 M182.7,117.4c-0.2,0.6-0.4,1.2-0.5,1.7v0.1l13.9,10.5l0.1-0.1c0.3-0.5,0.5-1.1,0.6-1.7v-0.1l-14-10.6L182.7,117.4z M183.4,115.3
		l12.7,9.8l0.1-0.2c0.3-0.6,0.5-1.2,0.6-1.8V123L183,112.5l-0.1,0.2c-0.1,0.1-0.1,0.2-0.1,0.3s0,0.1-0.1,0.2
		c-0.2,0.5-0.3,0.9-0.4,1.3v0.1l0.1,0.1l0.7,0.5h0.2L183.4,115.3z"/>
</g>
</svg>
